# Blender 5.2.2 LTS
# www.blender.org
mtllib COlored pumpkin claws attempt i dont even know.mtl
o 114195368565223
v -0.904647 0.549320 0.066333
v -0.900599 0.543679 0.176836
v -0.892786 0.488495 0.164583
v -0.891950 0.585437 0.103951
v -0.888257 0.581113 0.148179
v -1.947879 0.252380 0.648824
v -1.877698 0.260316 0.684054
v -2.005489 0.327796 0.654946
v -2.018291 0.262751 0.569627
v -1.943913 0.378078 0.698726
v -1.800928 0.393583 0.659031
v -2.094492 0.683964 0.080395
v -1.986663 0.696362 -0.019359
v -2.047784 0.652170 0.003897
v -2.096958 0.577552 0.061795
v -2.037789 0.753742 0.092719
v -1.888830 0.745336 0.091589
v -2.074126 0.523742 0.602275
v -2.070031 0.399176 0.583124
v -1.955649 0.431678 0.594662
v -3.140143 0.361102 0.585203
v -2.018465 0.569447 0.633665
v -1.840157 0.574490 0.549271
v -1.109267 0.502206 0.285614
v -1.099705 0.424727 0.276100
v -1.043922 0.503113 0.256783
v -1.134850 0.405927 0.307974
v -1.147430 0.506224 0.319605
v -1.037531 0.439944 0.248987
v -0.959082 0.424830 0.270480
v -0.971319 0.510888 0.285017
v -0.913876 0.479163 0.180550
v -0.923874 0.545481 0.193831
v -0.900599 0.543679 0.176836
v -0.892786 0.488495 0.164583
v -2.123376 0.724947 0.286082
v -2.016068 0.693363 0.193851
v -2.132221 0.652215 0.183416
v -3.169671 0.455260 0.339866
v -2.072588 0.774874 0.315176
v -1.880299 0.730454 0.319478
v -2.045536 0.663779 0.396012
v -2.123376 0.724947 0.286082
v -2.107553 0.626220 0.373315
v -3.169671 0.455260 0.339866
v -2.072588 0.774874 0.315176
v -1.880299 0.730454 0.319478
v -2.089296 0.551495 0.490457
v -2.074126 0.523742 0.602275
v -2.018465 0.569447 0.633665
v -3.140143 0.361102 0.585203
v -2.025133 0.599494 0.497054
v -1.840157 0.574490 0.549271
v -1.997402 0.676842 0.181540
v -2.094492 0.683964 0.080395
v -2.055251 0.638595 0.143605
v -2.096958 0.577552 0.061795
v -2.037789 0.753742 0.092719
v -1.888830 0.745336 0.091589
v -1.934931 0.426850 0.584819
v -2.005489 0.327796 0.654946
v -1.943913 0.378078 0.698726
v -1.800928 0.393583 0.659031
v -1.987680 0.368191 0.579818
v -2.018291 0.262751 0.569627
v -1.120871 0.563362 0.237341
v -1.043922 0.503113 0.256783
v -1.054200 0.552469 0.217806
v -0.993815 0.572262 0.236933
v -1.109267 0.502206 0.285614
v -1.162662 0.586483 0.256253
v -1.147430 0.506224 0.319605
v -0.971319 0.510888 0.285017
v -0.923874 0.545481 0.193831
v -0.908221 0.592964 0.157485
v -0.900599 0.543679 0.176836
v -0.888257 0.581113 0.148179
v -1.125611 0.532100 0.102857
v -1.062342 0.559318 0.155023
v -1.063411 0.526539 0.109459
v -1.018113 0.532526 0.097991
v -1.127725 0.572219 0.159469
v -1.168846 0.546845 0.080610
v -1.171658 0.598104 0.154050
v -1.013243 0.579305 0.158283
v -0.928919 0.556306 0.055936
v -0.912904 0.598446 0.101387
v -0.891950 0.585437 0.103951
v -0.904647 0.549320 0.066333
v -1.037531 0.439944 0.248987
v -1.018113 0.532526 0.097991
v -0.913876 0.479163 0.180550
v -0.959082 0.424830 0.270480
v -0.892786 0.488495 0.164583
v -0.904647 0.549320 0.066333
v -0.928919 0.556306 0.055936
v -1.063411 0.526539 0.109459
v -1.125611 0.532100 0.102857
v -1.099705 0.424727 0.276100
v -1.168846 0.546845 0.080610
v -1.134850 0.405927 0.307974
v -1.127725 0.572219 0.159469
v -1.120871 0.563362 0.237341
v -1.062342 0.559318 0.155023
v -1.162662 0.586483 0.256253
v -1.171658 0.598104 0.154050
v -1.054200 0.552469 0.217806
v -1.013243 0.579305 0.158283
v -0.993815 0.572262 0.236933
v -0.908221 0.592964 0.157485
v -0.912904 0.598446 0.101387
v -0.891950 0.585437 0.103951
v -0.888257 0.581113 0.148179
v -2.085200 0.426928 0.471306
v -1.955649 0.431678 0.594662
v -2.070031 0.399176 0.583124
v -3.140143 0.361102 0.585203
v -1.962320 0.461727 0.458052
v -1.840157 0.574490 0.549271
v -1.930071 0.292773 0.573692
v -1.877698 0.260316 0.684054
v -1.947879 0.252380 0.648824
v -2.018291 0.262751 0.569627
v -1.868715 0.309089 0.570149
v -1.800928 0.393583 0.659031
v -2.008545 0.606802 0.067107
v -1.986663 0.696362 -0.019359
v -1.946277 0.619462 0.069465
v -1.888830 0.745336 0.091589
v -2.047784 0.652170 0.003897
v -2.096958 0.577552 0.061795
v -2.116397 0.553490 0.270653
v -2.016068 0.693363 0.193851
v -1.989015 0.582267 0.274685
v -1.880299 0.730454 0.319478
v -2.132221 0.652215 0.183416
v -3.169671 0.455260 0.339866
v -1.989015 0.582267 0.274685
v -2.107553 0.626220 0.373315
v -2.116397 0.553490 0.270653
v -3.169671 0.455260 0.339866
v -2.045536 0.663779 0.396012
v -1.880299 0.730454 0.319478
v -2.089296 0.551495 0.490457
v -1.962320 0.461727 0.458052
v -2.085200 0.426928 0.471306
v -3.140143 0.361102 0.585203
v -2.025133 0.599494 0.497054
v -1.840157 0.574490 0.549271
v -2.008545 0.606802 0.067107
v -1.946277 0.619462 0.069465
v -1.997402 0.676842 0.181540
v -1.888830 0.745336 0.091589
v -2.055251 0.638595 0.143605
v -2.096958 0.577552 0.061795
v -1.930071 0.292773 0.573692
v -1.934931 0.426850 0.584819
v -1.868715 0.309089 0.570149
v -1.800928 0.393583 0.659031
v -1.987680 0.368191 0.579818
v -2.018291 0.262751 0.569627
vn 0.9953 -0.0830 -0.0491
vn 0.9954 -0.0828 -0.0492
vn 0.9954 -0.0827 -0.0491
vn 0.9953 -0.0831 -0.0492
vn 0.9953 -0.0832 -0.0491
vn -0.5559 -0.4703 0.6854
vn -0.2270 -0.2557 0.9397
vn -0.4390 -0.3822 0.8131
vn -0.6602 -0.5465 0.5153
vn 0.0724 -0.0880 0.9935
vn 0.2645 0.0286 0.9640
vn -0.6552 0.4816 -0.5820
vn -0.4536 0.6854 -0.5697
vn -0.7535 0.3104 -0.5795
vn -0.8257 0.1157 -0.5522
vn -0.1606 0.8446 -0.5108
vn 0.0473 0.8977 -0.4380
vn -0.0866 -0.2169 0.9723
vn -0.0400 -0.1845 0.9820
vn 0.0149 -0.2046 0.9787
vn 0.0073 -0.1517 0.9884
vn 0.2451 -0.1295 0.9608
vn 0.4284 -0.0599 0.9016
vn 0.5788 -0.0273 0.8150
vn 0.5571 -0.0332 0.8298
vn 0.0380 -0.1327 0.9904
vn 0.6687 -0.0052 0.7435
vn 0.6687 -0.0053 0.7435
vn 0.0624 -0.1295 0.9896
vn 0.3232 -0.0989 0.9411
vn 0.4779 -0.0695 0.8757
vn 0.7747 -0.0124 0.6322
vn 0.7955 -0.0028 0.6059
vn 0.6029 -0.0782 0.7940
vn -0.2652 0.7742 -0.5747
vn -0.1520 0.8073 -0.5703
vn -0.2486 0.7906 -0.5596
vn -0.2350 0.8026 -0.5483
vn 0.0484 0.8482 -0.5274
vn 0.2080 0.8540 -0.4769
vn -0.3260 0.5332 0.7806
vn -0.4085 0.5395 0.7362
vn -0.2849 0.5936 0.7527
vn -0.1276 0.6452 0.7533
vn -0.1661 0.5727 0.8028
vn 0.1217 0.6032 0.7883
vn -0.3177 0.9131 0.2557
vn -0.4232 0.8706 0.2508
vn -0.2085 0.9498 0.2331
vn -0.1498 0.9547 0.2573
vn -0.3227 0.9164 0.2367
vn 0.0722 0.9748 0.2109
vn -0.3181 0.6338 0.7050
vn -0.7582 0.2246 0.6121
vn -0.7701 0.2021 0.6051
vn -0.8682 -0.0658 0.4918
vn -0.2143 0.6837 0.6976
vn 0.0481 0.7659 0.6412
vn -0.3484 0.8739 0.3391
vn -0.8472 0.5227 0.0949
vn -0.2821 0.8919 0.3535
vn 0.0098 0.9190 0.3942
vn -0.8382 0.5352 0.1050
vn -0.9558 0.2846 -0.0736
vn 0.4729 0.6000 0.6453
vn 0.0037 0.6082 0.7938
vn -0.0026 0.6078 0.7941
vn 0.1883 0.5841 0.7896
vn 0.4270 0.6096 0.6679
vn 0.5791 0.5700 0.5829
vn 0.0243 0.5800 0.8142
vn 0.5785 0.4640 0.6709
vn 0.5776 0.4539 0.6785
vn 0.5653 0.3758 0.7343
vn 0.5653 0.3757 0.7343
vn 0.3208 0.7777 -0.5407
vn -0.0878 0.8076 -0.5832
vn -0.0625 0.8096 -0.5836
vn -0.3501 0.7574 -0.5512
vn 0.3648 0.7661 -0.5292
vn 0.4909 0.7213 -0.4886
vn -0.3749 0.7505 -0.5442
vn -0.0542 0.7385 -0.6720
vn -0.1332 0.7468 -0.6515
vn 0.4483 0.5677 -0.6905
vn -0.0204 -0.8512 -0.5245
vn -0.0203 -0.8512 -0.5245
vn 0.3218 0.9438 0.0757
vn 0.3836 0.9209 0.0691
vn -0.0338 0.9919 0.1223
vn 0.5020 0.8632 0.0540
vn 0.5019 0.8632 0.0540
vn -0.0990 0.9864 0.1314
vn -0.2496 0.9583 0.1390
vn -0.2303 0.9637 0.1352
vn 0.0367 0.9943 0.0999
vn 0.2461 0.9661 0.0775
vn 0.5236 0.8511 0.0395
vn 0.5235 0.8511 0.0398
vn 0.1348 -0.9602 -0.2447
vn 0.5113 -0.8307 -0.2201
vn 0.1622 -0.9561 -0.2439
vn 0.0340 -0.9689 -0.2451
vn 0.4047 -0.8847 -0.2313
vn 0.7363 -0.6525 -0.1795
vn 0.2792 -0.8793 -0.3859
vn 0.5311 -0.7884 -0.3103
vn 0.2764 -0.8802 -0.3859
vn 0.3126 -0.8656 -0.3913
vn 0.4794 -0.8143 -0.3273
vn 0.8434 -0.5148 -0.1539
vn 0.2356 -0.7015 -0.6726
vn 0.5015 -0.5383 -0.6773
vn 0.4052 -0.6040 -0.6863
vn 0.7783 -0.2543 -0.5741
vn 0.2309 -0.7022 -0.6735
vn 0.2696 -0.6953 -0.6662
vn 0.0939 -0.6334 -0.7681
vn 0.4816 -0.4593 -0.7464
vn 0.3362 -0.5339 -0.7759
vn 0.6901 -0.3084 -0.6548
vn 0.1268 -0.6214 -0.7732
vn 0.0123 -0.6610 -0.7503
vn 0.2711 -0.7506 0.6025
vn 0.1689 -0.7973 0.5795
vn 0.1433 -0.8060 0.5743
vn 0.1133 -0.8153 0.5678
vn 0.4216 -0.6566 0.6254
vn 0.5229 -0.5741 0.6301
vn -0.1164 0.1740 -0.9778
vn -0.0238 0.2349 -0.9717
vn -0.1160 0.1625 -0.9799
vn -0.1152 0.1472 -0.9824
vn 0.1618 0.3244 -0.9320
vn 0.2985 0.3835 -0.8739
vn 0.2223 -0.8387 0.4972
vn 0.3250 -0.7821 0.5317
vn 0.5745 -0.5968 0.5601
vn 0.7215 -0.4248 0.5468
vn 0.2008 -0.8433 0.4985
vn 0.2457 -0.8328 0.4961
vn -0.0089 0.0870 -0.9962
vn 0.3509 0.3010 -0.8867
vn 0.0911 0.1569 -0.9834
vn 0.5184 0.3865 -0.7628
vn -0.0317 0.0831 -0.9960
vn 0.0146 0.0920 -0.9957
vt 0.000000 0.000000
s 1
usemtl Material.001
f 1/1/1 2/1/2 3/1/3
f 2/1/2 1/1/1 4/1/4
f 2/1/2 4/1/4 5/1/5
f 6/1/6 7/1/7 8/1/8
f 6/1/6 8/1/8 9/1/9
f 7/1/7 10/1/10 8/1/8
f 10/1/10 7/1/7 11/1/11
f 12/1/12 13/1/13 14/1/14
f 14/1/14 15/1/15 12/1/12
f 13/1/13 12/1/12 16/1/16
f 16/1/16 17/1/17 13/1/13
f 18/1/18 19/1/19 20/1/20
f 19/1/19 18/1/18 21/1/21
f 20/1/20 22/1/22 18/1/18
f 22/1/22 20/1/20 23/1/23
f 24/1/24 25/1/25 26/1/26
f 24/1/24 27/1/27 25/1/25
f 27/1/27 24/1/24 28/1/28
f 25/1/25 29/1/29 26/1/26
f 30/1/30 26/1/26 29/1/29
f 26/1/26 30/1/30 31/1/31
f 32/1/32 31/1/31 30/1/30
f 31/1/31 32/1/32 33/1/33
f 32/1/32 34/1/34 33/1/33
f 34/1/34 32/1/32 35/1/34
f 36/1/35 37/1/36 38/1/37
f 38/1/37 39/1/38 36/1/35
f 40/1/39 37/1/36 36/1/35
f 40/1/39 41/1/40 37/1/36
f 42/1/41 43/1/42 44/1/43
f 43/1/42 45/1/44 44/1/43
f 43/1/42 42/1/41 46/1/45
f 42/1/41 47/1/46 46/1/45
f 48/1/47 49/1/48 50/1/49
f 49/1/48 48/1/47 51/1/50
f 48/1/47 50/1/49 52/1/51
f 52/1/51 50/1/49 53/1/52
f 54/1/53 55/1/54 56/1/55
f 55/1/54 57/1/56 56/1/55
f 55/1/54 54/1/53 58/1/57
f 54/1/53 59/1/58 58/1/57
f 60/1/59 61/1/60 62/1/61
f 60/1/59 62/1/61 63/1/62
f 61/1/60 60/1/59 64/1/63
f 61/1/60 64/1/63 65/1/64
f 66/1/65 67/1/66 68/1/67
f 67/1/66 69/1/68 68/1/67
f 67/1/66 66/1/65 70/1/69
f 71/1/70 70/1/69 66/1/65
f 71/1/70 72/1/70 70/1/69
f 69/1/68 67/1/66 73/1/71
f 74/1/72 69/1/68 73/1/71
f 69/1/68 74/1/72 75/1/73
f 75/1/73 74/1/72 76/1/74
f 75/1/73 76/1/74 77/1/75
f 78/1/76 79/1/77 80/1/78
f 79/1/77 81/1/79 80/1/78
f 79/1/77 78/1/76 82/1/80
f 83/1/81 82/1/80 78/1/76
f 83/1/81 84/1/81 82/1/80
f 81/1/79 79/1/77 85/1/82
f 85/1/82 86/1/83 81/1/79
f 86/1/83 85/1/82 87/1/84
f 88/1/85 86/1/83 87/1/84
f 86/1/83 88/1/85 89/1/85
f 90/1/86 91/1/87 92/1/86
f 90/1/86 92/1/86 93/1/87
f 91/1/87 94/1/86 92/1/86
f 94/1/86 91/1/87 95/1/86
f 95/1/86 91/1/87 96/1/87
f 91/1/87 90/1/86 97/1/86
f 90/1/86 98/1/86 97/1/86
f 98/1/86 90/1/86 99/1/86
f 99/1/86 100/1/86 98/1/86
f 101/1/86 100/1/86 99/1/86
f 102/1/88 103/1/89 104/1/90
f 102/1/88 105/1/91 103/1/89
f 105/1/91 102/1/88 106/1/92
f 103/1/89 107/1/93 104/1/90
f 107/1/93 108/1/94 104/1/90
f 108/1/94 107/1/93 109/1/95
f 110/1/96 108/1/94 109/1/95
f 108/1/94 110/1/96 111/1/97
f 110/1/96 112/1/98 111/1/97
f 112/1/98 110/1/96 113/1/99
f 114/1/100 115/1/101 116/1/102
f 114/1/100 116/1/102 117/1/103
f 115/1/101 114/1/100 118/1/104
f 115/1/101 118/1/104 119/1/105
f 120/1/106 121/1/107 122/1/108
f 120/1/106 122/1/108 123/1/109
f 121/1/107 120/1/106 124/1/110
f 121/1/107 124/1/110 125/1/111
f 126/1/112 127/1/113 128/1/114
f 127/1/113 129/1/115 128/1/114
f 127/1/113 126/1/112 130/1/116
f 126/1/112 131/1/117 130/1/116
f 132/1/118 133/1/119 134/1/120
f 133/1/119 135/1/121 134/1/120
f 133/1/119 132/1/118 136/1/122
f 132/1/118 137/1/123 136/1/122
f 138/1/124 139/1/125 140/1/126
f 139/1/125 141/1/127 140/1/126
f 139/1/125 138/1/124 142/1/128
f 138/1/124 143/1/129 142/1/128
f 144/1/130 145/1/131 146/1/132
f 144/1/130 146/1/132 147/1/133
f 145/1/131 144/1/130 148/1/134
f 145/1/131 148/1/134 149/1/135
f 150/1/136 151/1/137 152/1/138
f 151/1/137 153/1/139 152/1/138
f 152/1/138 154/1/140 150/1/136
f 154/1/140 155/1/141 150/1/136
f 156/1/142 157/1/143 158/1/144
f 158/1/144 157/1/143 159/1/145
f 157/1/143 156/1/142 160/1/146
f 160/1/146 156/1/142 161/1/147
o 86082044456407
v -1.955447 0.664938 0.469881
v -1.790107 0.717489 0.476844
v -1.907550 0.683157 0.409112
v -1.893642 0.629905 0.503234
v -1.789293 0.724648 0.415103
v -1.819567 0.717639 0.372177
v -1.784138 0.723148 0.420421
v -1.697850 0.705496 0.455118
v -1.771162 0.671256 0.504256
v -1.774762 0.666497 0.508909
v -1.795678 0.623251 0.528613
v -1.552677 0.774284 0.208961
v -1.477534 0.811377 0.056239
v -1.568375 0.807902 0.060843
v -1.417442 0.797466 0.120410
v -1.712826 0.778152 0.074159
v -1.697656 0.785339 0.056355
v -1.414338 0.781233 0.189997
v -1.372912 0.772825 0.157358
v -1.432842 0.778375 0.200769
v -1.448151 0.776950 0.210223
v -1.542706 0.761789 0.327889
v -1.688079 0.745696 0.221287
v -1.781418 0.772292 0.168279
v -1.753180 0.757112 0.223989
v -1.714771 0.741541 0.304035
v -1.557962 0.756732 0.345521
v -1.685438 0.731892 0.344466
v -1.659083 0.732144 0.387699
v -1.602452 0.740366 0.410375
v -1.531619 0.651229 0.515419
v -1.657919 0.621765 0.522118
v -1.631488 0.519233 0.586611
v -1.641920 0.663324 0.498246
v -1.591084 0.694737 0.483492
v -1.675984 0.585899 0.553643
v -1.693408 0.517917 0.609848
v -1.706388 0.472281 0.653064
v -1.512326 0.640217 0.524003
v -1.618597 0.401074 0.682449
v -1.494089 0.539830 0.587170
v -1.393043 0.556450 0.566018
v -1.375979 0.550822 0.567850
v -1.472082 0.422564 0.682455
v -1.599057 0.390870 0.693004
v -1.382816 0.432076 0.667213
v -1.340821 0.490848 0.615035
v -1.355344 0.545160 0.570822
v -1.309407 0.519526 0.568825
vn -0.2877 0.8062 0.5169
vn -0.0463 0.8507 0.5236
vn -0.3205 0.9445 0.0726
vn -0.1890 0.4814 0.8559
vn -0.2166 0.9726 0.0839
vn -0.3205 0.9445 0.0727
vn 0.1552 0.9812 0.1148
vn 0.2245 0.8438 0.4875
vn 0.2578 0.5687 0.7811
vn -0.0893 0.5108 0.8550
vn -0.1047 0.9792 0.1739
vn -0.0209 0.9739 0.2260
vn -0.1032 0.9669 0.2332
vn 0.0657 0.9727 0.2226
vn -0.0914 0.9696 0.2271
vn -0.1773 0.9549 0.2381
vn 0.0975 0.9705 0.2207
vn 0.3430 0.9180 0.1989
vn -0.0216 0.9780 0.2073
vn -0.0266 0.9939 0.1067
vn -0.1543 0.9815 0.1138
vn -0.0128 0.9867 0.1623
vn 0.1724 0.9680 0.1824
vn 0.1738 0.9726 0.1547
vn 0.1760 0.9787 0.1059
vn -0.1921 0.9746 0.1151
vn -0.1282 0.9851 0.1149
vn -0.0782 0.5193 0.8510
vn -0.0171 0.5322 0.8465
vn 0.0844 0.5906 0.8026
vn -0.0781 0.5191 0.8512
vn -0.0782 0.5191 0.8511
vn 0.2707 0.5656 0.7790
vn 0.2648 0.6034 0.7522
vn 0.2615 0.6245 0.7360
vn -0.0400 0.5255 0.8499
vn -0.0053 0.6281 0.7781
vn -0.0055 0.5833 0.8122
vn 0.0861 0.5415 0.8363
vn 0.0678 0.6226 0.7796
vn -0.0185 0.6302 0.7762
vn -0.0934 0.6195 0.7794
vn 0.0643 0.6376 0.7677
vn 0.1408 0.6453 0.7508
vn 0.1704 0.6475 0.7428
vn 0.3871 0.6421 0.6617
vt 0.000000 0.000000
s 1
usemtl Material.003
f 162/2/148 163/2/149 164/2/150
f 165/2/151 163/2/149 162/2/148
f 164/2/150 166/2/152 167/2/153
f 166/2/152 164/2/150 163/2/149
f 166/2/152 163/2/149 168/2/154
f 168/2/154 163/2/149 169/2/155
f 163/2/149 170/2/156 169/2/155
f 163/2/149 171/2/157 170/2/156
f 163/2/149 165/2/151 171/2/157
f 171/2/157 165/2/151 172/2/151
f 173/2/158 174/2/159 175/2/160
f 174/2/159 173/2/158 176/2/161
f 177/2/162 175/2/160 178/2/163
f 175/2/160 177/2/162 173/2/158
f 179/2/164 180/2/165 176/2/161
f 176/2/161 181/2/166 179/2/164
f 176/2/161 173/2/158 181/2/166
f 181/2/166 173/2/158 182/2/167
f 173/2/158 183/2/168 182/2/167
f 173/2/158 177/2/162 184/2/169
f 184/2/169 183/2/168 173/2/158
f 184/2/169 177/2/162 185/2/170
f 184/2/169 185/2/170 186/2/171
f 186/2/171 187/2/172 184/2/169
f 183/2/168 184/2/169 188/2/173
f 189/2/174 184/2/169 187/2/172
f 188/2/173 184/2/169 189/2/174
f 190/2/173 188/2/173 189/2/174
f 188/2/173 190/2/173 191/2/173
f 192/2/175 193/2/176 194/2/177
f 193/2/176 192/2/175 195/2/178
f 195/2/178 192/2/175 196/2/179
f 194/2/177 193/2/176 197/2/180
f 197/2/180 198/2/181 194/2/177
f 199/2/182 194/2/177 198/2/181
f 192/2/175 194/2/177 200/2/183
f 194/2/177 199/2/182 201/2/184
f 200/2/183 194/2/177 202/2/185
f 194/2/177 201/2/184 202/2/185
f 203/2/186 200/2/183 202/2/185
f 202/2/185 204/2/187 203/2/186
f 201/2/184 205/2/188 202/2/185
f 205/2/188 201/2/184 206/2/189
f 207/2/190 202/2/185 205/2/188
f 208/2/191 202/2/185 207/2/190
f 208/2/191 204/2/187 202/2/185
f 204/2/187 208/2/191 209/2/192
f 208/2/191 210/2/193 209/2/192
o Cube.001
v -1.661281 -0.478916 0.446934
v -1.658509 0.487960 0.443475
v -1.659041 -0.488590 -0.435195
v -1.658020 0.494223 -0.494223
v -1.520345 -0.478916 0.446934
v -1.517572 0.487960 0.443475
v -1.518104 -0.488590 -0.435195
v -1.517083 0.494223 -0.494223
v -1.658020 0.417206 0.494223
v -1.658020 0.417206 -0.494223
v -1.517083 0.417206 -0.494223
v -1.517083 0.417206 0.494223
v -1.658020 -0.401341 -0.494223
v -1.517083 -0.401341 -0.494223
v -1.517083 -0.401341 0.494223
v -1.658020 -0.401341 0.494223
vn -1.0000 -0.0030 -0.0003
vn -1.0000 -0.0034 -0.0003
vn -1.0000 -0.0017 -0.0001
vn -0.0000 -0.0000 -1.0000
vn 1.0000 0.0017 0.0001
vn 1.0000 0.0034 0.0003
vn 1.0000 0.0030 0.0003
vn -0.0000 0.5828 0.8126
vn -0.0000 -0.9999 0.0110
vn -0.0000 1.0000 0.0067
vn -0.0000 -0.0000 1.0000
vn 1.0000 -0.0000 -0.0000
vn -1.0000 -0.0000 -0.0000
vn -0.9997 0.0259 -0.0013
vn -0.0000 -0.5604 -0.8283
vn 0.9997 -0.0259 0.0013
vn -0.0000 -0.5205 0.8539
vt 0.605521 0.000000
vt 0.625000 0.000000
vt 0.625000 0.250000
vt 0.605521 0.250000
vt 0.625000 0.500000
vt 0.605521 0.500000
vt 0.625000 0.750000
vt 0.605521 0.750000
vt 0.625000 1.000000
vt 0.605521 1.000000
vt 0.125000 0.500000
vt 0.375000 0.500000
vt 0.375000 0.750000
vt 0.125000 0.750000
vt 0.875000 0.500000
vt 0.875000 0.750000
vt 0.398492 0.750000
vt 0.398492 1.000000
vt 0.398492 0.500000
vt 0.398492 0.250000
vt 0.398492 0.000000
vt 0.375000 0.000000
vt 0.375000 0.250000
vt 0.375000 1.000000
s 1
f 219/3/194 212/4/195 214/5/195 220/6/196
f 220/6/197 214/5/197 218/7/197 221/8/197
f 221/8/198 218/7/199 216/9/199 222/10/200
f 222/10/201 216/9/201 212/11/201 219/12/201
f 213/13/202 217/14/202 215/15/202 211/16/202
f 218/7/203 214/17/203 212/18/203 216/9/203
f 225/19/204 222/10/204 219/12/204 226/20/204
f 224/21/205 221/8/198 222/10/200 225/19/205
f 223/22/197 220/6/197 221/8/197 224/21/197
f 226/23/206 219/3/194 220/6/196 223/22/206
f 211/24/207 226/23/207 223/22/207 213/25/207
f 213/25/208 223/22/208 224/21/208 217/14/208
f 217/14/209 224/21/209 225/19/209 215/15/209
f 215/15/210 225/19/210 226/20/210 211/26/210
o right_fist
v -1.804018 -0.403191 -0.403191
v -1.804018 0.403191 0.403191
v -1.804018 0.403191 -0.403191
v -1.804018 -0.403191 0.403191
v 1.804018 0.403191 -0.403191
v 1.804018 -0.403191 0.403191
v 1.804018 -0.403191 -0.403191
v 1.804018 0.403191 0.403191
v 1.756205 -0.403191 0.451005
v 1.756205 -0.451004 0.403191
v 1.804018 -0.403191 0.403191
v 1.804018 -0.403191 -0.403191
v 1.756205 -0.451005 -0.403191
v 1.756205 -0.403191 -0.451004
v 1.756205 0.403191 0.451004
v 1.804018 0.403191 0.403191
v 1.756205 0.451005 0.403191
v 1.756205 0.451004 -0.403191
v 1.804018 0.403191 -0.403191
v 1.756205 0.403191 -0.451005
v -1.756205 -0.403191 0.451005
v -1.804018 -0.403191 0.403191
v -1.756205 -0.451004 0.403191
v -1.756205 -0.451005 -0.403191
v -1.804018 -0.403191 -0.403191
v -1.756205 -0.403191 -0.451004
v -1.756205 0.403191 0.451004
v -1.756205 0.451005 0.403191
v -1.804018 0.403191 0.403191
v -1.804018 0.403191 -0.403191
v -1.756205 0.451004 -0.403191
v -1.756205 0.403191 -0.451005
v 1.804018 -0.403191 0.403191
v 1.756205 0.403191 0.451004
v 1.756205 -0.403191 0.451005
v 1.804018 0.403191 0.403191
v 1.804018 0.403191 -0.403191
v 1.756205 -0.403191 -0.451004
v 1.756205 0.403191 -0.451005
v 1.804018 -0.403191 -0.403191
v -1.804018 0.403191 0.403191
v -1.804018 -0.403191 0.403191
v -1.756205 -0.403191 0.451005
v -1.756205 0.403191 0.451004
v -1.804018 -0.403191 -0.403191
v -1.804018 0.403191 -0.403191
v -1.756205 0.403191 -0.451005
v -1.756205 -0.403191 -0.451004
v 1.756205 0.451005 0.403191
v -1.756205 0.451005 0.403191
v -1.756205 0.403191 0.451004
v 1.756205 0.403191 0.451004
v 1.756205 0.403191 -0.451005
v -1.756205 0.403191 -0.451005
v -1.756205 0.451004 -0.403191
v 1.756205 0.451004 -0.403191
v -1.756205 -0.451004 0.403191
v 1.756205 -0.451004 0.403191
v 1.756205 -0.403191 0.451005
v -1.756205 -0.403191 0.451005
v -1.756205 -0.403191 -0.451004
v 1.756205 -0.403191 -0.451004
v 1.756205 -0.451005 -0.403191
v -1.756205 -0.451005 -0.403191
v 1.756205 -0.451005 -0.403191
v -1.756205 -0.451004 0.403191
v -1.756205 -0.451005 -0.403191
v 1.756205 -0.451004 0.403191
v -1.756205 0.403191 -0.451005
v 1.756205 0.403191 -0.451005
v 1.756205 -0.403191 -0.451004
v -1.756205 -0.403191 -0.451004
v -1.756205 0.451004 -0.403191
v 1.756205 0.451005 0.403191
v 1.756205 0.451004 -0.403191
v -1.756205 0.451005 0.403191
v -1.756205 -0.403191 0.451005
v 1.756205 -0.403191 0.451005
v 1.756205 0.403191 0.451004
v -1.756205 0.403191 0.451004
vn -0.8755 -0.3417 -0.3417
vn -0.8755 0.3417 0.3417
vn -0.8755 0.3417 -0.3417
vn -0.8755 -0.3417 0.3417
vn 0.8755 0.3417 -0.3417
vn 0.8755 -0.3417 0.3417
vn 0.8755 -0.3417 -0.3417
vn 0.8755 0.3417 0.3417
vn 0.3417 -0.3418 0.8755
vn 0.3417 -0.8755 0.3417
vn 0.8755 -0.3418 0.3417
vn 0.3418 -0.8755 -0.3417
vn 0.3418 -0.3417 -0.8755
vn 0.3418 0.3417 0.8755
vn 0.3418 0.8755 0.3417
vn 0.3417 0.8755 -0.3417
vn 0.8755 0.3418 -0.3417
vn 0.3417 0.3418 -0.8755
vn -0.3418 -0.3417 0.8755
vn -0.3418 -0.8755 0.3417
vn -0.3417 -0.8755 -0.3417
vn -0.8755 -0.3418 -0.3417
vn -0.3417 -0.3418 -0.8755
vn -0.3417 0.3418 0.8755
vn -0.3417 0.8755 0.3417
vn -0.8755 0.3418 0.3417
vn -0.3418 0.8755 -0.3417
vn -0.3418 0.3417 -0.8755
vn 0.3417 0.3417 0.8755
vn 0.3417 -0.3417 0.8755
vn 0.3417 -0.3417 -0.8755
vn 0.3417 0.3417 -0.8755
vn -0.3417 -0.3417 0.8755
vn -0.3417 0.3417 0.8755
vn -0.3417 0.3417 -0.8755
vn -0.3417 -0.3417 -0.8755
vn 0.3417 0.8755 0.3417
vn -0.3417 0.8755 -0.3417
vn -0.3417 -0.8755 0.3417
vn 0.3417 -0.8755 -0.3417
vt 0.372650 0.019678
vt 0.478632 0.130590
vt 0.372650 0.130590
vt 0.478632 0.019678
vt 0.478632 0.481216
vt 0.372650 0.370304
vt 0.478632 0.370304
vt 0.372650 0.481216
vt 0.478632 0.363148
vt 0.478632 0.137746
vt 0.365812 0.363148
vt 0.365812 0.137746
vt 0.140171 0.137746
vt 0.140171 0.363148
vt 0.252991 0.137746
vt 0.252991 0.363148
vt 0.147009 0.137746
vt 0.147009 0.363148
vt 0.259829 0.363148
vt 0.259829 0.137746
vt 0.372650 0.137746
vt 0.372650 0.363148
vt 0.034188 0.363148
vt 0.034188 0.137746
s 1
f 227/27/211 228/28/212 229/29/213
f 228/28/212 227/27/211 230/30/214
f 231/31/215 232/32/216 233/33/217
f 232/32/216 231/31/215 234/34/218
f 235/32/219 236/32/220 237/32/221
f 236/32/220 238/33/217 237/32/221
f 238/33/217 236/32/220 239/33/222
f 239/33/222 240/33/223 238/33/217
f 241/34/224 242/34/218 243/34/225
f 244/31/226 243/34/225 242/34/218
f 242/34/218 245/31/227 244/31/226
f 246/31/228 244/31/226 245/31/227
f 247/30/229 248/30/214 249/30/230
f 250/27/231 249/30/230 248/30/214
f 248/30/214 251/27/232 250/27/231
f 252/27/233 250/27/231 251/27/232
f 253/28/234 254/28/235 255/28/236
f 256/29/213 255/28/236 254/28/235
f 254/28/235 257/29/237 256/29/213
f 258/29/238 256/29/213 257/29/237
f 259/32/216 260/34/239 261/32/240
f 260/34/239 259/32/216 262/34/218
f 263/31/215 264/33/241 265/31/242
f 264/33/241 263/31/215 266/33/217
f 267/28/212 268/30/214 269/30/243
f 269/30/243 270/28/244 267/28/212
f 271/27/211 272/29/213 273/29/245
f 273/29/245 274/27/246 271/27/211
f 275/35/247 276/36/235 277/36/244
f 275/35/247 277/36/244 278/35/239
f 279/37/242 280/38/245 281/38/248
f 279/37/242 281/38/248 282/37/226
f 283/39/249 284/40/220 285/40/240
f 283/39/249 285/40/240 286/39/243
f 287/41/246 288/42/241 289/42/250
f 287/41/246 289/42/250 290/41/231
f 291/42/250 292/43/249 293/41/231
f 292/43/249 291/42/250 294/44/220
f 295/38/245 296/37/242 297/45/241
f 295/38/245 297/45/241 298/46/246
f 299/47/248 300/35/247 301/48/226
f 300/35/247 299/47/248 302/36/235
f 303/39/243 304/40/240 305/49/239
f 303/39/243 305/49/239 306/50/244
o 118000300472017
v -1.320951 0.233609 0.633691
v -1.316820 0.377033 0.753787
v -1.399868 0.181767 0.701304
v -1.412379 0.347633 0.843260
v -1.199950 0.409176 0.661790
v -1.620787 0.340649 0.777115
v -1.217997 0.288784 0.563570
v -1.595236 0.200779 0.654743
v -1.097728 0.455926 0.496116
v -1.130516 0.380716 0.438578
v -1.088490 0.509436 0.255759
v -1.686236 0.168488 0.692795
v -1.723019 0.319346 0.826421
v -1.829464 0.195708 0.639373
v -1.878878 0.319486 0.752426
v -1.850514 0.866834 0.019112
v -1.931430 0.633574 -0.006287
v -1.985376 0.776813 0.078065
v -1.808303 0.692676 -0.080155
v -1.738154 0.844651 0.033931
v -1.707608 0.683333 -0.056814
v -1.531450 0.746811 -0.131889
v -1.549810 0.937793 -0.026969
v -1.434188 0.881035 0.010602
v -1.433324 0.716163 -0.077865
v -1.297037 0.826093 0.047021
v -1.310953 0.687958 -0.025039
v -1.156264 0.707295 0.125457
v -1.186562 0.621388 0.083692
v -1.088490 0.509436 0.255759
v -1.829464 0.195708 0.639373
v -2.017350 0.711396 0.299737
v -1.931430 0.633574 -0.006287
v -1.985376 0.776813 0.078065
v -1.966368 0.492465 0.622566
v -2.089058 0.669063 0.522027
v -1.878878 0.319486 0.752426
v -1.595236 0.200779 0.654743
v -1.707608 0.683333 -0.056814
v -1.130516 0.380716 0.438578
v -1.217997 0.288784 0.563570
v -1.320951 0.233609 0.633691
v -1.399868 0.181767 0.701304
v -1.186562 0.621388 0.083692
v -1.088490 0.509436 0.255759
v -1.310953 0.687958 -0.025039
v -1.433324 0.716163 -0.077865
v -1.531450 0.746811 -0.131889
v -1.829464 0.195708 0.639373
v -1.686236 0.168488 0.692795
v -1.931430 0.633574 -0.006287
v -1.808303 0.692676 -0.080155
v -1.477533 0.382973 0.680877
v -1.604644 0.351502 0.690419
v -1.609239 0.407670 0.729235
v -1.624153 0.362219 0.680326
v -1.482127 0.439140 0.719695
v -1.628748 0.418386 0.719143
v -1.392845 0.448820 0.704652
v -1.711645 0.434982 0.654026
v -1.388251 0.392652 0.665836
v -1.716241 0.491151 0.692844
v -1.346064 0.453273 0.615975
v -1.698524 0.482258 0.612655
v -1.350658 0.509443 0.654791
v -1.703118 0.538427 0.651472
v -1.314602 0.483635 0.570890
v -1.680871 0.552366 0.559195
v -1.319195 0.539804 0.609707
v -1.685467 0.608534 0.598012
v -1.360406 0.509392 0.574020
v -1.662690 0.589382 0.529104
v -1.365000 0.565561 0.612837
v -1.667284 0.645551 0.567921
v -1.381020 0.515271 0.571322
v -1.646532 0.631789 0.506890
v -1.385612 0.571439 0.610139
v -1.651126 0.687958 0.545707
v -1.398057 0.521052 0.569757
v -1.595570 0.663523 0.493302
v -1.402652 0.577220 0.608574
v -1.600164 0.719692 0.532118
v -1.517005 0.607029 0.531411
v -1.540853 0.674639 0.562137
v -1.521600 0.663197 0.570230
v -1.536260 0.618471 0.523320
v -1.387975 0.781494 0.487555
v -1.302529 0.769289 0.247286
v -1.423141 0.814481 0.251342
v -1.258810 0.743753 0.441563
v -1.133215 0.657651 0.363337
v -1.181481 0.670425 0.247884
v -1.088490 0.509436 0.255759
v -1.457365 0.812146 0.262072
v -1.442069 0.813876 0.252649
v -1.551762 0.792720 0.379240
v -1.540838 0.774060 0.506655
v -1.567009 0.787034 0.396684
v -1.611448 0.768283 0.460923
v -1.691942 0.745111 0.510886
v -1.668165 0.761263 0.438060
v -1.694608 0.762880 0.394910
v -1.708162 0.747144 0.514827
v -1.794428 0.766604 0.481058
v -1.799588 0.768344 0.475817
v -1.723971 0.774296 0.354963
v -1.797241 0.799479 0.277457
v -1.762463 0.793267 0.275694
v -1.829982 0.763220 0.432710
v -2.017350 0.711396 0.299737
v -1.918060 0.727710 0.468418
v -1.965927 0.707290 0.528507
v -2.089058 0.669063 0.522027
v -1.966368 0.492465 0.622566
v -1.806251 0.662488 0.585163
v -1.904233 0.670639 0.560286
v -1.965927 0.707290 0.528507
v -2.089058 0.669063 0.522027
v -1.736207 0.537384 0.663933
v -1.785160 0.706388 0.567173
v -1.685467 0.608534 0.598012
v -1.703118 0.538427 0.651472
v -1.667284 0.645551 0.567921
v -1.781544 0.711314 0.562706
v -1.708162 0.747144 0.514827
v -1.691942 0.745111 0.510886
v -1.651126 0.687958 0.545707
v -1.600164 0.719692 0.532118
v -1.540838 0.774060 0.506655
v -1.540853 0.674639 0.562137
v -1.521600 0.663197 0.570230
v -1.387975 0.781494 0.487555
v -1.402652 0.577220 0.608574
v -1.366955 0.573206 0.607121
v -1.385612 0.571439 0.610139
v -1.256052 0.569701 0.541591
v -1.258810 0.743753 0.441563
v -1.133215 0.657651 0.363337
v -1.153458 0.550087 0.425327
v -1.088490 0.509436 0.255759
v -1.985376 0.776813 0.078065
v -2.017350 0.711396 0.299737
v -1.797241 0.799479 0.277457
v -1.850514 0.866834 0.019112
v -1.790736 0.810818 0.220703
v -1.762463 0.793267 0.275694
v -1.722302 0.820130 0.126746
v -1.738154 0.844651 0.033931
v -1.707130 0.827955 0.109215
v -1.577731 0.849682 0.114325
v -1.549810 0.937793 -0.026969
v -1.486883 0.852896 0.109665
v -1.434188 0.881035 0.010602
v -1.426731 0.836114 0.173092
v -1.297037 0.826093 0.047021
v -1.382253 0.809788 0.208920
v -1.302529 0.769289 0.247286
v -1.156264 0.707295 0.125457
v -1.181481 0.670425 0.247884
v -1.088490 0.509436 0.255759
v -1.423141 0.814481 0.251342
v -1.423571 0.817077 0.241961
v -1.442069 0.813876 0.252649
v -1.878878 0.319486 0.752426
v -1.736207 0.537384 0.663933
v -1.966368 0.492465 0.622566
v -1.723019 0.319346 0.826421
v -1.716241 0.491151 0.692844
v -1.703118 0.538427 0.651472
v -1.628748 0.418386 0.719143
v -1.620787 0.340649 0.777115
v -1.609239 0.407670 0.729235
v -1.482127 0.439140 0.719695
v -1.412379 0.347633 0.843260
v -1.392845 0.448820 0.704652
v -1.316820 0.377033 0.753787
v -1.350658 0.509443 0.654791
v -1.199950 0.409176 0.661790
v -1.319195 0.539804 0.609707
v -1.256052 0.569701 0.541591
v -1.097728 0.455926 0.496116
v -1.153458 0.550087 0.425327
v -1.088490 0.509436 0.255759
v -1.366955 0.573206 0.607121
v -1.365000 0.565561 0.612837
v -1.385612 0.571439 0.610139
v -1.788604 0.695400 0.431849
v -1.708162 0.747144 0.514827
v -1.794428 0.766604 0.481058
v -1.702339 0.675940 0.465619
v -1.799588 0.768344 0.475817
v -1.793762 0.697138 0.426607
v -1.829982 0.763220 0.432710
v -1.824157 0.692014 0.383499
v -1.918060 0.727710 0.468418
v -1.912237 0.656503 0.419208
v -1.960102 0.636084 0.479297
v -1.965927 0.707290 0.528507
v -1.904233 0.670639 0.560286
v -1.898408 0.599433 0.511077
v -1.800428 0.591281 0.535953
v -1.806251 0.662488 0.585163
v -1.779335 0.635183 0.517963
v -1.785160 0.706388 0.567173
v -1.775719 0.640108 0.513496
v -1.781544 0.711314 0.562706
v -1.708162 0.747144 0.514827
v -1.702339 0.675940 0.465619
v -1.757868 0.737099 0.236877
v -1.786141 0.754650 0.181887
v -1.790736 0.810818 0.220703
v -1.722302 0.820130 0.126746
v -1.762463 0.793267 0.275694
v -1.717707 0.763963 0.087930
v -1.719377 0.718128 0.316148
v -1.707130 0.827955 0.109215
v -1.723971 0.774296 0.354963
v -1.702537 0.771786 0.070397
v -1.690013 0.706711 0.356093
v -1.573135 0.793514 0.075507
v -1.694608 0.762880 0.394910
v -1.577731 0.849682 0.114325
v -1.663572 0.705095 0.399244
v -1.486883 0.852896 0.109665
v -1.668165 0.761263 0.438060
v -1.482288 0.796727 0.070848
v -1.606855 0.712116 0.422106
v -1.422136 0.779946 0.134274
v -1.611448 0.768283 0.460923
v -1.426731 0.836114 0.173092
v -1.567009 0.787034 0.396684
v -1.382253 0.809788 0.208920
v -1.562414 0.730865 0.357867
v -1.377659 0.753620 0.170103
v -1.551762 0.792720 0.379240
v -1.418977 0.760908 0.203145
v -1.547166 0.736552 0.340421
v -1.423571 0.817077 0.241961
v -1.457365 0.812146 0.262072
v -1.437473 0.757708 0.213833
v -1.452770 0.755980 0.223256
v -1.442069 0.813876 0.252649
vn 0.6683 -0.4874 0.5620
vn 0.6736 -0.4817 0.5605
vn 0.2760 -0.6281 0.7276
vn 0.2448 -0.6344 0.7332
vn 0.7217 -0.5077 0.4706
vn 0.1458 -0.6269 0.7653
vn 0.7347 -0.5037 0.4545
vn 0.1141 -0.6325 0.7661
vn 0.8828 -0.4358 0.1751
vn 0.8915 -0.4286 0.1466
vn 0.9282 -0.3691 -0.0465
vn 0.0993 -0.6584 0.7461
vn 0.0479 -0.6692 0.7415
vn -0.3379 -0.6853 0.6451
vn -0.2080 0.4297 -0.8787
vn -0.5627 0.2797 -0.7779
vn -0.5625 0.2797 -0.7780
vn -0.1577 0.4452 -0.8814
vn -0.1124 0.4814 -0.8693
vn -0.1439 0.4756 -0.8678
vn 0.0214 0.4654 -0.8848
vn -0.0109 0.4636 -0.8860
vn 0.4623 0.4259 -0.7777
vn 0.4561 0.4243 -0.7823
vn 0.5240 0.3408 -0.7806
vn 0.5407 0.3296 -0.7740
vn 0.7531 0.1214 -0.6467
vn 0.7685 0.0995 -0.6321
vn 0.8535 -0.0487 -0.5188
vn -0.8855 -0.4372 -0.1572
vn -0.8855 -0.4373 -0.1573
vn -0.8856 -0.4370 -0.1574
vn -0.8856 -0.4370 -0.1573
vn -0.8854 -0.4373 -0.1573
vn -0.8854 -0.4374 -0.1575
vn 0.0550 -0.8223 -0.5664
vn 0.0544 -0.8219 -0.5670
vn 0.0547 -0.8221 -0.5667
vn 0.0550 -0.8223 -0.5663
vn -0.1964 0.5465 -0.8141
vn 0.2014 0.5683 -0.7978
vn 0.2206 0.5663 -0.7941
vn 0.5974 0.4884 -0.6361
vn -0.1964 0.5466 -0.8141
vn -0.5907 0.4255 -0.6856
vn 0.8797 0.3170 -0.3546
vn -0.5526 0.4432 -0.7058
vn 0.9767 0.1700 -0.1312
vn -0.8641 0.2366 -0.4442
vn 0.9720 -0.0746 0.2230
vn -0.8643 0.2362 -0.4441
vn 0.9719 -0.0746 0.2230
vn -0.9840 -0.1484 0.0983
vn 0.9541 -0.1136 0.2773
vn -0.8330 -0.3591 0.4209
vn 0.9454 -0.1293 0.2991
vn -0.2631 -0.5630 0.7835
vn 0.9213 -0.1672 0.3510
vn 0.7887 -0.3049 0.5338
vn -0.2630 -0.5630 0.7835
vn 0.6833 -0.3764 0.6256
vn -0.3865 -0.5454 0.7437
vn -0.0974 -0.5711 0.8151
vn -0.4540 -0.5315 0.7152
vn -0.0823 -0.5712 0.8167
vn -0.5705 -0.4980 0.6531
vn -0.6210 -0.4794 0.6202
vn -0.6058 -0.4853 0.6305
vn 0.1427 0.9836 0.1104
vn 0.4402 0.8978 0.0094
vn 0.1372 0.9843 0.1108
vn 0.4447 0.8956 0.0059
vn 0.7056 0.6882 -0.1691
vn 0.6995 0.6955 -0.1641
vn 0.8332 0.4667 -0.2967
vn -0.0271 0.9893 0.1437
vn -0.0271 0.9892 0.1437
vn -0.0652 0.9868 0.1480
vn -0.1056 0.9830 0.1503
vn -0.1829 0.9705 0.1571
vn 0.0039 0.9877 0.1564
vn -0.1831 0.9705 0.1571
vn 0.1111 0.9820 0.1530
vn 0.1684 0.9741 0.1511
vn 0.1683 0.9741 0.1511
vn 0.0659 0.9871 0.1461
vn -0.0682 0.9883 0.1365
vn -0.3288 0.9378 0.1111
vn -0.3288 0.9378 0.1112
vn -0.2073 0.4043 0.8908
vn 0.0481 0.4872 0.8720
vn 0.1762 0.5158 0.8384
vn 0.2731 0.5318 0.8016
vn 0.2730 0.5318 0.8016
vn 0.2194 0.5281 0.8203
vn 0.2730 0.5318 0.8017
vn 0.2729 0.5318 0.8017
vn 0.1141 0.5178 0.8479
vn -0.0700 0.4844 0.8720
vn -0.0701 0.4845 0.8720
vn 0.0077 0.4962 0.8682
vn -0.0701 0.4844 0.8720
vn 0.0481 0.5005 0.8644
vn 0.2564 0.4957 0.8298
vn 0.0860 0.5046 0.8591
vn 0.2511 0.4963 0.8310
vn 0.5530 0.4139 0.7231
vn 0.5578 0.4103 0.7215
vn 0.8171 0.2092 0.5372
vn 0.8113 0.2157 0.5434
vn 0.9356 0.0268 0.3520
vn -0.3844 0.8851 0.2622
vn -0.3843 0.8852 0.2622
vn -0.0953 0.9639 0.2486
vn -0.1178 0.9608 0.2510
vn 0.1683 0.9609 0.2197
vn 0.0668 0.9589 0.2757
vn -0.0299 0.9451 0.3254
vn -0.2374 0.8761 0.4197
vn -0.0865 0.8996 0.4281
vn -0.0406 0.9024 0.4289
vn 0.1111 0.8985 0.4247
vn 0.1888 0.9117 0.3650
vn 0.2770 0.9155 0.2919
vn 0.4065 0.8748 0.2637
vn 0.3220 0.9125 0.2523
vn 0.4545 0.8491 0.2693
vn 0.6444 0.7062 0.2933
vn 0.7120 0.6330 0.3040
vn 0.8153 0.4863 0.3144
vn 0.1612 0.9513 0.2629
vn 0.2142 0.9413 0.2608
vn -0.0124 0.9636 0.2672
vn -0.2996 0.5209 0.7993
vn -0.0069 0.5800 0.8146
vn -0.2995 0.5208 0.7994
vn -0.0294 0.5772 0.8161
vn 0.2529 0.5898 0.7670
vn 0.2529 0.5899 0.7669
vn 0.1425 0.6256 0.7670
vn 0.0374 0.6518 0.7575
vn -0.1922 0.6818 0.7059
vn -0.0449 0.7210 0.6915
vn -0.0014 0.7300 0.6834
vn 0.1464 0.7465 0.6491
vn 0.2361 0.7084 0.6651
vn 0.3395 0.6545 0.6755
vn 0.4640 0.6320 0.6207
vn 0.3898 0.6240 0.6772
vn 0.5052 0.6344 0.5850
vn 0.6622 0.6297 0.4062
vn 0.7147 0.6212 0.3214
vn 0.7912 0.5898 0.1617
vn 0.2381 0.6253 0.7432
vn 0.2883 0.6269 0.7238
vn 0.0702 0.6088 0.7902
vn -0.5743 -0.4962 0.6511
vn -0.4096 -0.5411 0.7345
vn -0.5589 -0.5019 0.6601
vn -0.7087 -0.4394 0.5519
vn -0.7088 -0.4394 0.5519
vn -0.2458 -0.5647 0.7879
vn 0.0398 -0.5656 0.8237
vn 0.6620 -0.3887 0.6409
vn 0.6402 -0.4005 0.6556
vn 0.9911 0.1204 -0.0569
vn 0.9865 0.1397 -0.0853
vn 0.4455 0.5334 -0.7190
vn 0.4236 0.5382 -0.7286
vn -0.2353 0.5394 -0.8085
vn -0.4758 0.4734 -0.7413
vn -0.8657 0.2347 -0.4421
vn -0.7652 0.3229 -0.5570
vn -0.7526 0.3316 -0.5689
vn -0.6301 0.4059 -0.6620
vn 0.8811 0.3155 -0.3523
vn 0.9711 -0.0766 0.2263
vn 0.9963 0.0856 -0.0070
vn 0.7831 -0.3090 0.5398
vn 0.7831 -0.3090 0.5397
vn 0.8465 0.3478 -0.4031
vn 0.4643 -0.4775 0.7459
vn 0.8314 0.3603 -0.4230
vn 0.4452 -0.4845 0.7530
vn 0.7916 0.3899 -0.4705
vn 0.0622 -0.5640 0.8234
vn 0.6048 0.4854 -0.6314
vn -0.3638 -0.5496 0.7521
vn 0.4721 0.5270 -0.7067
vn -0.3209 -0.5556 0.7670
vn -0.3498 0.5133 -0.7837
vn -0.7065 -0.4404 0.5541
vn -0.3354 0.5169 -0.7876
vn -0.7064 -0.4402 0.5543
vn -0.8012 0.2944 -0.5209
vn -0.9471 0.1267 -0.2949
vn -0.7895 0.3039 -0.5332
vn -0.9928 -0.1113 0.0437
vn -0.7621 0.3248 -0.5602
vn -0.5021 0.4635 -0.7301
vn -0.7621 0.3248 -0.5601
vn -0.6671 0.3858 -0.6373
vn -0.6104 0.4159 -0.6741
vt 0.000000 0.000000
s 1
usemtl Material.002
f 307/51/251 308/51/252 309/51/253
f 310/51/254 309/51/253 308/51/252
f 307/51/251 311/51/255 308/51/252
f 312/51/256 309/51/253 310/51/254
f 311/51/255 307/51/251 313/51/257
f 309/51/253 312/51/256 314/51/258
f 313/51/257 315/51/259 311/51/255
f 315/51/259 313/51/257 316/51/260
f 315/51/259 316/51/260 317/51/261
f 312/51/256 318/51/262 314/51/258
f 318/51/262 312/51/256 319/51/263
f 319/51/263 320/51/264 318/51/262
f 320/51/264 319/51/263 321/51/264
f 322/51/265 323/51/266 324/51/267
f 323/51/266 322/51/265 325/51/268
f 325/51/268 322/51/265 326/51/269
f 325/51/268 326/51/269 327/51/270
f 327/51/270 326/51/269 328/51/271
f 326/51/269 329/51/272 328/51/271
f 330/51/273 328/51/271 329/51/272
f 328/51/271 330/51/273 331/51/274
f 330/51/273 332/51/275 331/51/274
f 331/51/274 332/51/275 333/51/276
f 333/51/276 332/51/275 334/51/277
f 335/51/278 333/51/276 334/51/277
f 335/51/278 334/51/277 336/51/279
f 337/51/280 338/51/281 339/51/282
f 339/51/282 338/51/281 340/51/283
f 341/51/284 338/51/281 337/51/280
f 338/51/281 341/51/284 342/51/285
f 337/51/280 343/51/280 341/51/284
f 344/51/286 345/51/286 346/51/287
f 347/51/288 344/51/286 346/51/287
f 344/51/286 347/51/288 348/51/286
f 348/51/286 349/51/286 344/51/286
f 346/51/287 350/51/286 351/51/288
f 346/51/287 345/51/286 350/51/286
f 350/51/286 345/51/286 352/51/288
f 352/51/288 345/51/286 353/51/286
f 345/51/286 354/51/289 353/51/286
f 345/51/286 344/51/286 355/51/286
f 344/51/286 356/51/286 355/51/286
f 345/51/286 355/51/286 357/51/286
f 357/51/286 358/51/289 345/51/286
f 359/51/290 360/51/291 361/51/292
f 362/51/293 361/51/292 360/51/291
f 361/51/292 363/51/294 359/51/290
f 361/51/292 362/51/293 364/51/293
f 365/51/295 359/51/290 363/51/294
f 366/51/296 364/51/293 362/51/293
f 359/51/290 365/51/295 367/51/297
f 364/51/293 366/51/296 368/51/298
f 365/51/295 369/51/299 367/51/297
f 370/51/300 368/51/298 366/51/296
f 371/51/301 369/51/299 365/51/295
f 368/51/298 370/51/300 372/51/302
f 371/51/301 373/51/303 369/51/299
f 374/51/304 372/51/302 370/51/300
f 375/51/305 373/51/303 371/51/301
f 372/51/302 374/51/304 376/51/306
f 375/51/305 377/51/307 373/51/303
f 378/51/308 376/51/306 374/51/304
f 379/51/307 377/51/307 375/51/305
f 376/51/306 378/51/308 380/51/308
f 379/51/307 381/51/307 377/51/307
f 382/51/309 380/51/308 378/51/308
f 381/51/307 379/51/307 383/51/310
f 380/51/308 382/51/309 384/51/311
f 383/51/310 385/51/312 381/51/307
f 386/51/313 384/51/311 382/51/309
f 385/51/312 383/51/310 387/51/314
f 384/51/311 386/51/313 388/51/315
f 387/51/314 389/51/316 385/51/312
f 388/51/315 386/51/313 390/51/317
f 389/51/316 387/51/314 391/51/316
f 390/51/317 386/51/313 392/51/318
f 391/51/316 392/51/318 389/51/316
f 392/51/318 391/51/316 390/51/317
f 393/51/319 394/51/320 395/51/321
f 394/51/320 393/51/319 396/51/322
f 397/51/323 394/51/320 396/51/322
f 394/51/320 397/51/323 398/51/324
f 398/51/324 397/51/323 399/51/325
f 395/51/321 400/51/326 393/51/319
f 400/51/326 395/51/321 401/51/327
f 393/51/319 400/51/326 402/51/328
f 403/51/329 393/51/319 402/51/328
f 403/51/329 402/51/328 404/51/330
f 403/51/329 404/51/330 405/51/330
f 405/51/330 406/51/331 403/51/329
f 406/51/331 405/51/330 407/51/332
f 408/51/333 406/51/331 407/51/332
f 408/51/333 409/51/334 406/51/331
f 409/51/334 408/51/333 410/51/335
f 410/51/335 408/51/333 411/51/336
f 411/51/336 408/51/333 412/51/334
f 412/51/334 413/51/337 411/51/336
f 413/51/337 412/51/334 414/51/334
f 411/51/336 413/51/337 415/51/338
f 416/51/339 415/51/338 413/51/337
f 415/51/338 416/51/339 417/51/338
f 417/51/338 416/51/339 418/51/338
f 416/51/339 419/51/338 418/51/338
f 420/51/340 421/51/340 422/51/340
f 423/51/340 420/51/340 422/51/340
f 420/51/340 423/51/340 424/51/340
f 421/51/340 420/51/340 425/51/341
f 425/51/341 426/51/342 421/51/340
f 425/51/341 427/51/343 426/51/342
f 427/51/343 425/51/341 428/51/344
f 429/51/345 426/51/342 427/51/343
f 426/51/342 429/51/345 430/51/346
f 429/51/345 431/51/347 430/51/346
f 431/51/347 429/51/345 432/51/348
f 432/51/348 429/51/345 433/51/349
f 434/51/350 432/51/348 433/51/349
f 432/51/348 434/51/350 435/51/351
f 435/51/351 434/51/350 436/51/352
f 435/51/351 436/51/352 437/51/353
f 437/51/353 438/51/354 435/51/351
f 439/51/355 438/51/354 437/51/353
f 438/51/354 439/51/355 440/51/356
f 440/51/356 439/51/355 441/51/355
f 440/51/356 442/51/357 438/51/354
f 438/51/354 442/51/357 443/51/358
f 442/51/357 444/51/359 443/51/358
f 444/51/359 442/51/357 445/51/360
f 444/51/359 445/51/360 446/51/361
f 447/51/362 448/51/363 449/51/364
f 449/51/364 450/51/365 447/51/362
f 450/51/365 449/51/364 451/51/366
f 452/51/366 451/51/366 449/51/364
f 453/51/367 450/51/365 451/51/366
f 450/51/365 453/51/367 454/51/368
f 454/51/368 453/51/367 455/51/369
f 456/51/370 454/51/368 455/51/369
f 454/51/368 456/51/370 457/51/371
f 458/51/372 457/51/371 456/51/370
f 457/51/371 458/51/372 459/51/373
f 458/51/372 460/51/374 459/51/373
f 460/51/374 461/51/375 459/51/373
f 461/51/375 460/51/374 462/51/376
f 461/51/375 462/51/376 463/51/377
f 463/51/377 464/51/378 461/51/375
f 464/51/378 463/51/377 465/51/379
f 464/51/378 465/51/379 466/51/380
f 462/51/376 467/51/381 463/51/377
f 467/51/381 462/51/376 468/51/382
f 468/51/382 469/51/383 467/51/381
f 470/51/384 471/51/385 472/51/386
f 471/51/385 470/51/384 473/51/387
f 471/51/385 473/51/387 474/51/388
f 471/51/385 474/51/388 475/51/389
f 474/51/388 473/51/387 476/51/390
f 473/51/387 477/51/391 476/51/390
f 476/51/390 477/51/391 478/51/392
f 478/51/392 477/51/391 479/51/393
f 477/51/391 480/51/394 479/51/393
f 479/51/393 480/51/394 481/51/395
f 482/51/396 481/51/395 480/51/394
f 481/51/395 482/51/396 483/51/397
f 483/51/397 482/51/396 484/51/398
f 485/51/399 483/51/397 484/51/398
f 485/51/399 484/51/398 486/51/400
f 487/51/401 486/51/400 484/51/398
f 486/51/400 487/51/401 488/51/402
f 488/51/402 487/51/401 489/51/403
f 486/51/400 490/51/404 485/51/399
f 491/51/405 485/51/399 490/51/404
f 492/51/406 491/51/405 490/51/404
f 493/51/407 494/51/408 495/51/409
f 494/51/408 493/51/407 496/51/408
f 497/51/410 493/51/407 495/51/409
f 493/51/407 497/51/410 498/51/411
f 499/51/412 498/51/411 497/51/410
f 498/51/411 499/51/412 500/51/413
f 501/51/414 500/51/413 499/51/412
f 500/51/413 501/51/414 502/51/415
f 503/51/416 502/51/415 501/51/414
f 503/51/416 501/51/414 504/51/417
f 505/51/418 503/51/416 504/51/417
f 503/51/416 505/51/418 506/51/419
f 506/51/419 505/51/418 507/51/420
f 505/51/418 508/51/421 507/51/420
f 507/51/420 508/51/421 509/51/422
f 510/51/422 509/51/422 508/51/421
f 510/51/422 511/51/423 509/51/422
f 512/51/424 511/51/423 510/51/422
f 513/51/425 511/51/423 512/51/424
f 511/51/423 513/51/425 514/51/425
f 515/51/426 516/51/427 517/51/428
f 516/51/427 518/51/429 517/51/428
f 515/51/426 517/51/428 519/51/426
f 516/51/427 520/51/430 518/51/429
f 521/51/431 515/51/426 519/51/426
f 520/51/430 522/51/432 518/51/429
f 521/51/431 519/51/426 523/51/433
f 524/51/434 522/51/432 520/51/430
f 525/51/435 521/51/431 523/51/433
f 526/51/436 522/51/432 524/51/434
f 525/51/435 523/51/433 527/51/435
f 522/51/432 526/51/436 528/51/436
f 529/51/437 525/51/435 527/51/435
f 526/51/436 530/51/438 528/51/436
f 529/51/437 527/51/435 531/51/439
f 530/51/438 526/51/436 532/51/440
f 529/51/437 531/51/439 533/51/441
f 534/51/442 530/51/438 532/51/440
f 531/51/439 535/51/443 533/51/441
f 530/51/438 534/51/442 536/51/444
f 537/51/445 533/51/441 535/51/443
f 536/51/444 534/51/442 538/51/446
f 533/51/441 537/51/445 539/51/447
f 538/51/446 534/51/442 540/51/448
f 541/51/449 539/51/447 537/51/445
f 542/51/450 538/51/446 540/51/448
f 539/51/447 541/51/449 543/51/451
f 538/51/446 542/51/450 544/51/450
f 545/51/452 543/51/451 541/51/449
f 546/51/450 544/51/450 542/51/450
f 543/51/451 545/51/452 547/51/453
f 544/51/450 546/51/450 548/51/450
f 548/51/450 547/51/453 545/51/452
f 547/51/453 548/51/450 546/51/450
